<?xml version="1.0" standalone="no"?>
<!DOCTYPE svg PUBLIC "-//W3C//DTD SVG 20010904//EN"
 "http://www.w3.org/TR/2001/REC-SVG-20010904/DTD/svg10.dtd">
<svg version="1.0" xmlns="http://www.w3.org/2000/svg"
 width="600.000000pt" height="400.000000pt" viewBox="0 0 600.000000 400.000000"
 preserveAspectRatio="xMidYMid meet">
<g transform="translate(0.000000,400.000000) scale(0.100000,-0.100000)"
fill="#4A154B" stroke="none">
<path d="M1817 2403 c-4 -3 2 -12 13 -20 11 -8 20 -21 20 -29 0 -8 -30 -42
-66 -76 -53 -50 -74 -79 -111 -157 -25 -53 -55 -109 -67 -126 l-21 -30 33 23
c17 13 37 33 43 45 23 41 104 119 149 142 49 25 129 49 137 42 2 -3 -2 -18
-11 -35 -15 -28 -15 -29 9 -24 13 2 42 20 65 39 l41 36 86 -12 c77 -11 88 -10
102 5 14 14 14 17 1 22 -8 3 -37 29 -65 58 -54 56 -96 74 -176 74 -26 0 -63 7
-82 15 -38 16 -89 20 -100 8z"/>
<path d="M3262 2304 c-42 -29 -22 -74 35 -74 26 0 36 6 45 26 11 23 10 29 -11
45 -28 23 -40 24 -69 3z"/>
<path d="M3898 2273 c-38 -4 -38 -5 -38 -49 0 -42 -1 -44 -30 -44 -27 0 -30
-3 -30 -30 0 -27 3 -30 30 -30 l30 0 0 -105 c0 -98 2 -108 23 -129 28 -28 90
-41 147 -31 36 6 40 10 40 36 0 28 -2 29 -48 29 -26 0 -53 5 -60 12 -8 8 -12
45 -12 100 l0 88 55 0 c54 0 55 0 55 30 0 30 -1 30 -55 30 l-55 0 0 50 c0 28
-3 49 -7 48 -5 -1 -25 -3 -45 -5z"/>
<path d="M2105 2165 c17 -26 25 -51 25 -82 0 -106 -57 -144 -232 -151 l-118
-5 0 40 c0 22 5 65 11 97 6 32 8 60 6 63 -11 10 -61 -33 -100 -86 -22 -30 -55
-92 -73 -138 l-33 -83 207 0 c228 0 290 10 366 54 86 50 128 154 106 260 l-11
54 -48 0 c-26 0 -67 3 -90 7 l-42 7 26 -37z"/>
<path d="M2430 2177 c-50 -11 -55 -14 -52 -36 1 -14 4 -26 6 -28 2 -2 41 1 87
7 92 13 130 6 148 -28 10 -18 5 -20 -82 -26 -51 -4 -108 -11 -128 -16 -83 -23
-111 -108 -52 -160 54 -48 178 -50 250 -3 22 14 23 14 23 -6 0 -18 6 -21 45
-21 l45 0 0 110 c0 130 -13 171 -62 196 -42 22 -155 27 -228 11z m196 -194
c-9 -34 -29 -50 -81 -64 -73 -20 -146 16 -119 58 15 24 45 31 133 32 l73 1 -6
-27z"/>
<path d="M2926 2166 c-47 -24 -48 -24 -53 -5 -4 15 -14 19 -44 19 l-39 0 0
-160 0 -160 45 0 45 0 0 101 c0 55 4 109 10 119 22 41 130 53 174 19 25 -20
26 -24 26 -130 l0 -109 46 0 46 0 -4 129 c-3 119 -5 131 -26 154 -47 49 -153
60 -226 23z"/>
<path d="M4210 2177 c-50 -11 -55 -14 -52 -36 1 -14 4 -27 7 -29 2 -3 38 1 78
7 94 15 157 2 157 -34 0 -8 -29 -14 -87 -19 -154 -12 -204 -38 -206 -110 -3
-94 146 -135 266 -75 37 19 37 19 37 -1 0 -17 7 -20 46 -20 l46 0 -4 129 c-3
119 -5 131 -26 154 -42 44 -146 58 -262 34z m198 -184 c2 -7 -9 -26 -25 -41
-54 -54 -173 -50 -181 6 -3 17 4 26 30 37 41 18 169 16 176 -2z"/>
<path d="M3250 2020 l0 -160 45 0 45 0 0 160 0 160 -45 0 -45 0 0 -160z"/>
<path d="M3420 2150 l0 -30 106 0 c58 0 104 -4 102 -8 -1 -5 -51 -53 -110
-107 -79 -71 -108 -104 -108 -121 l0 -24 180 0 180 0 0 30 0 30 -110 0 c-60 0
-110 4 -110 9 0 5 47 51 105 102 87 76 105 97 105 121 l0 28 -170 0 -170 0 0
-30z"/>
</g>
</svg>
